<?xml version="1.0" encoding="UTF-8"?>
<svg width="531px" height="79px" viewBox="0 0 531 79" version="1.1" xmlns="http://www.w3.org/2000/svg" xmlns:xlink="http://www.w3.org/1999/xlink">
    <!-- Generator: Sketch 43.2 (39069) - http://www.bohemiancoding.com/sketch -->
    <title>Group 2</title>
    <desc>Created with Sketch.</desc>
    <defs>
        <path d="M274.985186,34.3072562 C275.008599,34.1739934 275.032256,34.0412593 275.056157,33.9090537 C275.290147,32.6147869 275.516333,31.5076596 275.734723,30.5876386 C275.906315,29.8703341 276.237795,29.2699904 276.729173,28.7865896 C277.220551,28.3031887 277.887411,28.0614919 278.729773,28.0614919 C279.572134,28.0614919 280.157099,28.3187821 280.484684,28.8333701 C280.81227,29.3479581 280.97606,30.0340651 280.97606,30.8917118 C280.97606,31.1256155 280.952661,31.4413806 280.905863,31.8390168 C280.859065,32.236653 280.800569,32.6732666 280.730372,33.1488707 C280.660175,33.6244747 280.58608,34.115665 280.508083,34.6224562 C280.430087,35.1292474 280.355991,35.5970477 280.285794,36.025871 C280.215598,36.4546944 280.157101,36.8289346 280.110303,37.1486029 C280.063505,37.4682712 280.040107,37.6826796 280.040107,37.7918347 L280.508083,37.7918347 C280.601679,37.6203053 280.74987,37.3435235 280.952661,36.9614809 C281.155452,36.5794383 281.389438,36.1389264 281.654626,35.639932 C281.919814,35.1409375 282.204496,34.6146622 282.508683,34.0610903 C282.812869,33.5075183 283.097552,32.9773447 283.36274,32.4705535 C283.627928,31.9637623 283.869713,31.5154537 284.088103,31.1256143 C284.306493,30.7357749 284.470284,30.4472981 284.579479,30.2601752 C285.078656,29.418122 285.648022,28.8411684 286.287593,28.5292969 C286.927164,28.2174254 287.636921,28.0614919 288.416886,28.0614919 C289.196851,28.0614919 289.816913,28.3889521 290.277092,29.0438823 C290.737272,29.6988125 290.967358,30.6032263 290.967358,31.757151 C290.967358,31.9286803 290.93226,32.2171571 290.862063,32.6225901 C290.791866,33.0280231 290.702172,33.5114167 290.592976,34.0727854 C290.483781,34.6341541 290.362889,35.2500912 290.230295,35.9206149 C290.097701,36.5911387 289.976808,37.2772457 289.867613,37.9789567 C289.758418,38.6806676 289.668723,39.3745713 289.598526,40.0606886 C289.52833,40.746806 289.493232,41.3783363 289.493232,41.9552986 C289.493232,42.9221003 289.614124,43.7173608 289.855914,44.3411038 C290.097703,44.9648469 290.47598,45.2767137 290.990756,45.2767137 C291.224746,45.2767137 291.49383,45.2065437 291.798016,45.0662015 C292.102202,44.9258593 292.429782,44.7426375 292.780767,44.5165307 C293.131751,44.2904238 293.490529,44.0292354 293.857112,43.7329574 C294.223696,43.4366795 294.586374,43.1326093 294.945158,42.8207378 C295.77192,42.0878397 296.637668,41.2613926 297.542427,40.3413716 L297.940207,45.5807869 L296.770266,46.4696163 C296.130695,46.9530172 295.479434,47.4364108 294.816464,47.9198116 C294.153494,48.4032125 293.463236,48.8359277 292.745668,49.2179703 C292.028101,49.6000129 291.279346,49.9118798 290.499381,50.1535802 C289.719416,50.3952806 288.900466,50.516129 288.042505,50.516129 C287.184543,50.516129 286.463087,49.8962937 285.878113,48.6566044 C285.29314,47.4169151 285.000657,45.6041891 285.000657,43.218372 C285.000657,42.2827574 285.063054,41.2730885 285.187848,40.189335 C285.312642,39.1055815 285.468633,37.9399791 285.655825,36.6924931 L285.281443,36.6924931 L279.150951,48.8554215 C278.838966,49.4947581 278.487987,49.9313717 278.098004,50.1652753 C277.708022,50.399179 277.255649,50.516129 276.740873,50.516129 C276.101301,50.516129 275.586532,50.3796873 275.19655,50.1067997 C274.806568,49.8339121 274.506286,49.4674686 274.295695,49.0074581 C274.085105,48.5474476 273.944713,48.0250707 273.874517,47.4403116 C273.80432,46.8555525 273.769222,46.2513105 273.769222,45.6275674 C273.769222,44.5983914 273.831618,43.4093991 273.956412,42.0605548 C274.081207,40.7117104 274.237197,39.3394963 274.424389,37.9438713 C274.434611,37.8676596 274.444903,37.7915992 274.455264,37.7156899 C273.769963,37.0954807 273.046013,36.4893311 272.283397,35.8972247 C271.480033,35.2734816 270.688381,34.684833 269.908416,34.131261 C269.128451,33.5776891 268.457692,33.1137872 267.896117,32.7395413 L267.708926,32.996834 C268.161306,33.9012615 268.500585,34.8563537 268.726775,35.8621393 C268.952965,36.867925 269.066058,37.8308138 269.066058,38.7508348 C269.066058,39.6708558 268.964664,40.5986596 268.761873,41.5342742 C268.559083,42.4698888 268.2666,43.3743026 267.884418,44.2475428 C267.502235,45.1207831 267.034263,45.9394336 266.480488,46.7035188 C265.926713,47.467604 265.294951,48.130321 264.585183,48.6916898 C263.875415,49.2530585 263.099362,49.6974688 262.257,50.0249338 C261.414638,50.3523989 260.517692,50.516129 259.566136,50.516129 C258.193398,50.516129 257.019568,50.2159572 256.044612,49.6156045 C255.069657,49.0152518 254.270205,48.2316864 253.646233,47.2648847 C253.022261,46.298083 252.565989,45.2065491 252.277402,43.9902501 C251.988815,42.7739512 251.844524,41.5420772 251.844524,40.2945911 C251.844524,38.5792977 252.101908,36.9770819 252.616685,35.4878954 C253.131461,33.9987088 253.868517,32.7044615 254.827874,31.6051144 C255.78723,30.5057672 256.961059,29.6403368 258.349397,29.0087969 C259.737734,28.3772571 261.29764,28.0614919 263.029162,28.0614919 C264.511094,28.0614919 265.899411,28.2914937 267.194152,28.7515042 C268.488894,29.2115147 269.701721,29.8274517 270.832669,30.5993337 C271.963618,31.3712157 273.016555,32.2561379 273.991511,33.2541268 C274.330764,33.6013951 274.661989,33.9524379 274.985186,34.3072562 Z M260.47869,46.0252016 C261.009066,46.0252016 261.523835,45.7562165 262.023012,45.2182381 C262.522189,44.6802597 262.958963,44.0019493 263.333346,43.1832866 C263.707729,42.3646239 264.008011,41.46021 264.234201,40.470018 C264.460391,39.4798259 264.573484,38.5325304 264.573484,37.6281029 C264.573484,36.9107985 264.518887,36.2441831 264.409692,35.6282368 C264.300497,35.0122906 264.136707,34.4782186 263.918317,34.0260049 C263.699927,33.5737912 263.419144,33.2151443 263.075959,32.9500536 C262.732775,32.6849628 262.3194,32.5524194 261.835821,32.5524194 C261.19625,32.5524194 260.587887,32.8253028 260.010713,33.371078 C259.433539,33.9168532 258.92657,34.6146552 258.48979,35.4645051 C258.053009,36.314355 257.70983,37.2538539 257.460241,38.2830299 C257.210653,39.3122059 257.08586,40.3023831 257.08586,41.2535912 C257.08586,41.9085214 257.148256,42.5244584 257.273051,43.1014207 C257.397845,43.6783831 257.592833,44.1812683 257.858021,44.6100917 C258.123209,45.038915 258.474188,45.3819685 258.910968,45.6392625 C259.347749,45.8965565 259.870317,46.0252016 260.47869,46.0252016 Z" id="path-1"></path>
        <filter x="-3.3%" y="-6.7%" width="113.0%" height="126.7%" filterUnits="objectBoundingBox" id="filter-2">
            <feOffset dx="3" dy="3" in="SourceAlpha" result="shadowOffsetOuter1"></feOffset>
            <feColorMatrix values="0 0 0 0 0.158428997   0 0 0 0 0.158428997   0 0 0 0 0.158428997  0 0 0 1 0" type="matrix" in="shadowOffsetOuter1"></feColorMatrix>
        </filter>
        <path d="M0.37029703,14.3056452 L41.6039604,14.3056452 L41.6039604,26.2596774 L28.5346535,26.2596774 L28.5346535,60.0967742 L13.3742574,60.0967742 L13.3742574,26.2596774 L0.37029703,26.2596774 L0.37029703,14.3056452 Z M71.5326733,60.0967742 L66.0435644,48.2080645 L60.3584158,48.2080645 L60.3584158,60.0967742 L45.1980198,60.0967742 L45.1980198,14.3056452 L67.350495,14.3056452 C73.5802292,14.3056452 78.3940424,15.7318406 81.7920792,18.5842742 C85.190116,21.4367078 86.8891089,25.4757803 86.8891089,30.7016129 C86.8891089,34.0113069 86.268323,36.8963587 85.0267327,39.3568548 C83.7851423,41.817351 81.9881306,43.7661218 79.6356436,45.2032258 L88.6534653,60.0967742 L71.5326733,60.0967742 Z M60.3584158,36.7112903 L67.350495,36.7112903 C69.0059489,36.7112903 70.2801936,36.2213759 71.1732673,35.2415323 C72.0663411,34.2616886 72.5128713,32.9008152 72.5128713,31.158871 C72.5128713,29.4604754 72.0663411,28.1431498 71.1732673,27.2068548 C70.2801936,26.2705598 69.0059489,25.8024194 67.350495,25.8024194 L60.3584158,25.8024194 L60.3584158,36.7112903 Z M109.041584,46.4443548 C110.348521,47.8379102 111.916823,48.5346774 113.746535,48.5346774 C115.532682,48.5346774 117.013856,47.8487972 118.190099,46.4770161 C119.366343,45.1052351 119.954455,43.3088821 119.954455,41.0879032 L119.954455,14.3056452 L135.114851,14.3056452 L135.114851,41.0879032 C135.114851,45.0943749 134.232682,48.610872 132.468317,51.6375 C130.703952,54.664128 128.209917,57.0048304 124.986139,58.6596774 C121.76236,60.3145244 117.994081,61.1419355 113.681188,61.1419355 C109.368295,61.1419355 105.567343,60.3145244 102.278218,58.6596774 C98.9890925,57.0048304 96.4406031,54.664128 94.6326733,51.6375 C92.8247434,48.610872 91.9207921,45.0943749 91.9207921,41.0879032 L91.9207921,14.3056452 L107.081188,14.3056452 L107.081188,41.0879032 C107.081188,43.2653335 107.734647,45.0507995 109.041584,46.4443548 Z M140.99604,14.3056452 L157.071287,14.3056452 L168.441584,38.2137097 L179.746535,14.3056452 L195.821782,14.3056452 L195.821782,60.0967742 L182.556436,60.0967742 L182.556436,35.0129032 L173.342574,55.6548387 L163.475248,55.6548387 L154.261386,35.0129032 L154.261386,60.0967742 L140.99604,60.0967742 L140.99604,14.3056452 Z M237.708911,18.5842742 C240.976254,21.4367078 242.609901,25.4757803 242.609901,30.7016129 C242.609901,36.2322857 240.976254,40.5326459 237.708911,43.6028226 C234.441568,46.6729992 229.823792,48.2080645 223.855446,48.2080645 L217.516832,48.2080645 L217.516832,60.0967742 L202.356436,60.0967742 L202.356436,14.3056452 L223.855446,14.3056452 C229.823792,14.3056452 234.441568,15.7318406 237.708911,18.5842742 Z M226.894059,35.2415323 C227.787133,34.2616886 228.233663,32.9008152 228.233663,31.158871 C228.233663,29.4604754 227.787133,28.1431498 226.894059,27.2068548 C226.000986,26.2705598 224.726741,25.8024194 223.071287,25.8024194 L217.516832,25.8024194 L217.516832,36.7112903 L223.071287,36.7112903 C224.726741,36.7112903 226.000986,36.2213759 226.894059,35.2415323 Z" id="path-3"></path>
        <filter x="-0.6%" y="-3.2%" width="102.5%" height="112.8%" filterUnits="objectBoundingBox" id="filter-4">
            <feOffset dx="3" dy="3" in="SourceAlpha" result="shadowOffsetOuter1"></feOffset>
            <feColorMatrix values="0 0 0 0 0.158428997   0 0 0 0 0.158428997   0 0 0 0 0.158428997  0 0 0 1 0" type="matrix" in="shadowOffsetOuter1"></feColorMatrix>
        </filter>
        <path d="M330.925743,26.3903226 C327.876222,25.3016075 325.393079,24.7572581 323.476238,24.7572581 C321.602961,24.7572581 320.666337,25.4322513 320.666337,26.7822581 C320.666337,27.8274246 321.265341,28.6330617 322.463366,29.1991935 C323.661392,29.7653254 325.567314,30.3967707 328.181188,31.0935484 C331.448531,32.0080691 334.160385,32.9225761 336.316832,33.8370968 C338.473278,34.7516175 340.357418,36.1995869 341.969307,38.1810484 C343.581196,40.1625099 344.387129,42.7645 344.387129,45.9870968 C344.387129,49.2967907 343.526741,52.0729727 341.805941,54.3157258 C340.08514,56.558479 337.765361,58.2241881 334.846535,59.3129032 C331.927708,60.4016183 328.682196,60.9459677 325.109901,60.9459677 C321.058396,60.9459677 316.974278,60.2818615 312.857426,58.953629 C308.740573,57.6253966 305.179223,55.8072696 302.173267,53.4991935 L307.793069,42.0677419 C310.101992,44.0709778 312.998992,45.7802349 316.484158,47.1955645 C319.969324,48.6108942 322.888107,49.3185484 325.240594,49.3185484 C326.373273,49.3185484 327.266333,49.1116956 327.919802,48.6979839 C328.573271,48.2842721 328.9,47.6419398 328.9,46.7709677 C328.9,45.7258012 328.279214,44.9092771 327.037624,44.321371 C325.796033,43.7334648 323.846548,43.1129065 321.189109,42.4596774 C317.96533,41.6322539 315.275258,40.7721819 313.118812,39.8794355 C310.962365,38.9866891 309.100008,37.6040416 307.531683,35.7314516 C305.963358,33.8588616 305.179208,31.3548544 305.179208,28.2193548 C305.179208,25.1709525 305.98514,22.5036405 307.59703,20.2173387 C309.208919,17.931037 311.496025,16.1782319 314.458416,14.958871 C317.420807,13.73951 320.862357,13.1298387 324.783168,13.1298387 C328.355463,13.1298387 331.916814,13.6306402 335.467327,14.6322581 C339.01784,15.633876 342.099987,16.9620885 344.713861,18.6169355 L339.224752,30.1790323 C336.741572,28.7419283 333.975263,27.4790377 330.925743,26.3903226 Z M345.367327,14.3056452 L386.60099,14.3056452 L386.60099,26.2596774 L373.531683,26.2596774 L373.531683,60.0967742 L358.371287,60.0967742 L358.371287,26.2596774 L345.367327,26.2596774 L345.367327,14.3056452 Z M390.19505,14.3056452 L428.945545,14.3056452 L428.945545,25.8024194 L405.355446,25.8024194 L405.355446,31.4201613 L426.789109,31.4201613 L426.789109,42.9169355 L405.355446,42.9169355 L405.355446,48.6 L429.533663,48.6 L429.533663,60.0967742 L390.19505,60.0967742 L390.19505,14.3056452 Z M461.618812,60.0967742 L456.129703,48.2080645 L450.444554,48.2080645 L450.444554,60.0967742 L435.284158,60.0967742 L435.284158,14.3056452 L457.436634,14.3056452 C463.666368,14.3056452 468.480181,15.7318406 471.878218,18.5842742 C475.276255,21.4367078 476.975248,25.4757803 476.975248,30.7016129 C476.975248,34.0113069 476.354462,36.8963587 475.112871,39.3568548 C473.871281,41.817351 472.074269,43.7661218 469.721782,45.2032258 L478.739604,60.0967742 L461.618812,60.0967742 Z M450.444554,36.7112903 L457.436634,36.7112903 C459.092087,36.7112903 460.366332,36.2213759 461.259406,35.2415323 C462.15248,34.2616886 462.59901,32.9008152 462.59901,31.158871 C462.59901,29.4604754 462.15248,28.1431498 461.259406,27.2068548 C460.366332,26.2705598 459.092087,25.8024194 457.436634,25.8024194 L450.444554,25.8024194 L450.444554,36.7112903 Z M513.438614,14.3056452 L527.161386,14.3056452 L527.161386,60.0967742 L514.484158,60.0967742 L496.448515,36.7112903 L496.448515,60.0967742 L482.660396,60.0967742 L482.660396,14.3056452 L495.337624,14.3056452 L513.438614,37.8217742 L513.438614,14.3056452 Z" id="path-5"></path>
        <filter x="-0.7%" y="-3.1%" width="102.7%" height="112.5%" filterUnits="objectBoundingBox" id="filter-6">
            <feOffset dx="3" dy="3" in="SourceAlpha" result="shadowOffsetOuter1"></feOffset>
            <feColorMatrix values="0 0 0 0 0.158428997   0 0 0 0 0.158428997   0 0 0 0 0.158428997  0 0 0 1 0" type="matrix" in="shadowOffsetOuter1"></feColorMatrix>
        </filter>
    </defs>
    <g id="Welcome" stroke="none" stroke-width="1" fill="none" fill-rule="evenodd">
        <g id="Desktop-HD" transform="translate(-408.000000, -65.000000)">
            <g id="Group-2" transform="translate(408.000000, 64.000000)">
                <g id="on">
                    <use fill="black" fill-opacity="1" filter="url(#filter-2)" xlink:href="#path-1"></use>
                    <use fill="#FDDB6C" fill-rule="evenodd" xlink:href="#path-1"></use>
                </g>
                <g id="Trump">
                    <use fill="black" fill-opacity="1" filter="url(#filter-4)" xlink:href="#path-3"></use>
                    <use fill="#DD5846" fill-rule="evenodd" xlink:href="#path-3"></use>
                </g>
                <g id="Stern">
                    <use fill="black" fill-opacity="1" filter="url(#filter-6)" xlink:href="#path-5"></use>
                    <use fill="#DD5846" fill-rule="evenodd" xlink:href="#path-5"></use>
                </g>
                <g id="Group-7" transform="translate(247.445545, 0.000000)" fill="#FCDB6C">
                    <polygon id="Path-2" points="0 10.016129 5.66336634 6.09677419 12.6336634 18.7258065 9.58415842 20.0322581"></polygon>
                    <polygon id="Path-2-Copy-2" transform="translate(26.792079, 8.274194) rotate(7.000000) translate(-26.792079, -8.274194) " points="22.6534653 2.61290323 28.7524752 0.870967742 30.9306931 15.2419355 27.8811881 15.6774194"></polygon>
                    <polygon id="Path-2-Copy" transform="translate(45.561395, 10.962095) rotate(71.000000) translate(-45.561395, -10.962095) " points="39.2445637 8.25226667 43.6245106 3.65579333 51.8782271 16.9619441 48.8287221 18.2683957"></polygon>
                </g>
                <g id="Group-6" transform="translate(274.945545, 70.500000) scale(1, -1) translate(-274.945545, -70.500000) translate(247.445545, 60.000000)" fill="#FCDB6C">
                    <polygon id="Path-2-Copy-5" points="0 10.016129 5.66336634 6.09677419 12.6336634 18.7258065 9.58415842 20.0322581"></polygon>
                    <polygon id="Path-2-Copy-4" transform="translate(26.792079, 8.274194) rotate(7.000000) translate(-26.792079, -8.274194) " points="22.6534653 2.61290323 28.7524752 0.870967742 30.9306931 15.2419355 27.8811881 15.6774194"></polygon>
                    <polygon id="Path-2-Copy-3" transform="translate(45.561395, 10.962095) rotate(71.000000) translate(-45.561395, -10.962095) " points="39.2445637 8.25226667 43.6245106 3.65579333 51.8782271 16.9619441 48.8287221 18.2683957"></polygon>
                </g>
            </g>
        </g>
    </g>
</svg>